<?xml version="1.0" standalone="no"?>
<!DOCTYPE svg PUBLIC "-//W3C//DTD SVG 20010904//EN"
 "http://www.w3.org/TR/2001/REC-SVG-20010904/DTD/svg10.dtd">
<svg version="1.0" xmlns="http://www.w3.org/2000/svg"
 width="4096.000000pt" height="1024.000000pt" viewBox="0 0 4096.000000 1024.000000"
 preserveAspectRatio="xMidYMid meet">

<g transform="translate(0.000000,1024.000000) scale(0.100000,-0.100000)"
fill="#000000" stroke="none">
<path d="M14910 10233 c-758 -9 -1629 -55 -2155 -114 -2103 -233 -3341 -848
-5095 -2534 -194 -187 -7650 -7575 -7650 -7581 0 -2 1304 -4 2898 -3 l2897 0
1945 1901 c2663 2602 2631 2570 2850 2775 442 411 750 662 1090 888 782 520
1574 734 2980 805 546 27 1169 30 8055 30 l7140 0 1760 1721 c968 947 1851
1811 1961 1920 l202 199 -9347 -2 c-5140 -2 -9429 -4 -9531 -5z"/>
<path d="M29465 5120 l-5120 -5120 3177 0 3176 0 3004 2997 c1651 1648 3959
3952 5128 5120 l2125 2123 -3185 0 -3185 0 -5120 -5120z"/>
<path d="M15245 5789 c-1919 -53 -2700 -277 -3614 -1039 -263 -219 -526 -474
-1751 -1705 -706 -709 -1677 -1684 -2157 -2165 l-873 -875 2687 -3 2687 -2
761 758 c418 417 803 794 855 839 448 378 807 520 1455 573 329 26 897 30
5561 30 l4851 0 1524 1533 c838 842 1643 1652 1788 1800 l265 267 -6879 -2
c-3784 0 -7006 -5 -7160 -9z"/>
</g>
</svg>
